<svg xmlns="http://www.w3.org/2000/svg" width="29.712" height="42.456" viewBox="0 0 29.712 42.456">
  <g id="Group_22" data-name="Group 22" transform="translate(-2163.554 -223.892)">
    <path id="Path_178" data-name="Path 178" d="M2178.41,223.892a14.873,14.873,0,0,0-14.856,14.856c0,3.387,2.683,9.389,7.759,17.355,2.861,4.491,5.752,8.445,7.1,10.245,1.345-1.8,4.237-5.754,7.1-10.245,5.075-7.967,7.758-13.968,7.758-17.355A14.873,14.873,0,0,0,2178.41,223.892Zm0,22.308a7.452,7.452,0,1,1,7.452-7.452A7.46,7.46,0,0,1,2178.41,246.2Z" transform="translate(0 0)" fill="#fff"/>
  </g>
</svg>
